<?xml version="1.0" standalone="yes"?>
<svg xmlns="http://www.w3.org/2000/svg" width="144" height="144">
<path style="fill:#fcfdfe; stroke:none;" d="M0 0L0 71L13 71L13 73L0 73L0 144L144 144L144 73L131 73L131 71L144 71L144 0L0 0z"/>
<path style="fill:#5b9dd8; stroke:none;" d="M18 20L18 21C27.514 21.3087 33.7144 30.7277 40 37C42.3616 39.3566 46.1086 44.6244 50 43.6543C54.4776 42.5381 58.8642 36.1405 62 33C64.878 30.1177 67.6558 27.3279 70 24C64.6287 27.7836 55.5995 41.9444 49 41.9444C45.5416 41.9444 42.197 37.195 40 35C33.4502 28.4561 27.8968 20.1169 18 20M120 20L120 21L125 21L106.001 40C103.822 42.1949 99.4524 45.4169 100.346 49C102.429 57.3566 121.535 64.1187 120.369 73C119.12 82.5139 102.656 86.7314 100.346 96C99.4524 99.5831 103.822 102.805 106.001 105L125 124L120 124L120 125L126 125C122.52 117.537 114.767 111.772 109 106C106.805 103.803 102.056 100.458 102.056 97C102.056 87.2471 123.269 82.0873 122.079 72C121.049 63.272 99.8776 55.8695 102.207 47C104.967 36.4873 121.281 30.12 126 20L120 20z"/>
<path style="fill:#2079c9; stroke:none;" d="M19 21L19 22L46 48L46 49L22 72L22 73L46 96L46 97L19 124C32.8895 123.549 36.0645 105.341 48 102.207C54.2369 100.569 67.7804 118.78 72 123L73 123C77.2178 118.782 90.7658 100.567 97 102.207C108.704 105.285 110.955 123.544 125 124C120.022 116.934 113.09 111.115 107 105C104.846 102.837 100.274 99.5532 101.207 96C103.619 86.815 119.941 82.6462 121.079 73C122.173 63.7285 103.433 57.4783 101.207 49C100.274 45.4468 104.846 42.1631 107 40C113.09 33.8848 120.022 28.0664 125 21C116.351 21.2807 110.637 28.9587 105.17 35C102.94 37.4644 99.7927 42.9444 95.9992 42.9444C87.7498 42.9444 78.7145 25.5976 71 22C67.5023 26.5906 54.2691 44.4395 48 42.7932C36.0645 39.6589 32.8895 21.4507 19 21z"/>
<path style="fill:#5b9dd8; stroke:none;" d="M72 21L73 22L72 21M118 21L119 22L118 21M20 22L21 23L20 22M73 22L74 23L73 22M117 22L118 23L117 22M21 23L22 24L21 23M74 23L75 24L74 23M116 23L117 24L116 23M75 24L76 25L75 24M115 24L116 25L115 24M76 25L77 26L76 25M77 26L78 27L77 26M78 27L79 28L78 27M72 28C82.6547 43.1256 100.874 61.3453 116 72C105.345 56.8744 87.1256 38.6547 72 28M79 28L80 29L79 28z"/>
<path style="fill:#fcfdfe; stroke:none;" d="M29 72L29 73L59.7145 104L72 114.793L85 104L116 73L84 40L72 30.2068L59.4244 41L29 72z"/>
<path style="fill:#5b9dd8; stroke:none;" d="M80 29L81 30L80 29M81 30L82 31L81 30M82 31L83 32L82 31M83 32L84 33L83 32M84 33L85 34L84 33M85 34L86 35L85 34M86 35L87 36L86 35M87 36L88 37L87 36M88 37L89 38L88 37M89 38L90 39L89 38M102 38L103 39L102 38M36 39L37 40L36 39M90 39L91 40L90 39M101 39L102 40L101 39M37 40L38 41L37 40M91 40L92 41L91 40M100 40L101 41L100 40M38 41L39 42L38 41M92 41L93 42L92 41M99 41L100 42L99 41M39 42L40 43L39 42M58 42L59 43L58 42M93 42L94 43L93 42M98 42L99 43L98 42M40 43L41 44L40 43M57 43L58 44L57 43M94 43L95 44L94 43M97 43L98 44L97 43M41 44L42 45L41 44M56 44L57 45L56 44M95.6667 44.3333L96.3333 44.6667L95.6667 44.3333M42 45L43 46L42 45M55 45L56 46L55 45M43 46L44 47L43 46M54 46L55 47L54 46M44 47L45 48L44 47M53 47L54 48L53 47M45 48L46 49L45 48M52 48L53 49L52 48M44 49L45 50L44 49M51 49L52 50L51 49M43 50L44 51L43 50M50 50L51 51L50 50M42 51L43 52L42 51M49 51L50 52L49 51M41 52L42 53L41 52M48 52L49 53L48 52M40 53L41 54L40 53M47 53L48 54L47 53M39 54L40 55L39 54M46 54L47 55L46 54M38 55L39 56L38 55M45 55L46 56L45 55M37 56L38 57L37 56M44 56L45 57L44 56M36 57L37 58L36 57M43 57L44 58L43 57M35 58L36 59L35 58M42 58L43 59L42 58M34 59L35 60L34 59M41 59L42 60L41 59M33 60L34 61L33 60M40 60L41 61L40 60M32 61L33 62L32 61M39 61L40 62L39 61M31 62L32 63L31 62M38 62L39 63L38 62M30 63L31 64L30 63M37 63L38 64L37 63M29 64L30 65L29 64M36 64L37 65L36 64z"/>
<path style="fill:#115fcf; stroke:none;" d="M42 64L42 65C46.1364 69.0507 46.1364 75.9493 42 80L42 81L48 81L46 67L47 67L52 81L55 74L49.5 65.1667L42 64z"/>
<path style="fill:#5b9dd8; stroke:none;" d="M49 64L50 65L49 64z"/>
<path style="fill:#bf82f6; stroke:none;" d="M57.3333 64.6667L57.6667 65.3333L57.3333 64.6667z"/>
<path style="fill:#115fcf; stroke:none;" d="M56 70L57 70L58 66L59 66C59 71.122 59.8776 76.2027 56 80L56 81L65 81L65 80C60.8636 75.9493 60.8636 69.0507 65 65C60.1224 62.9695 57.4371 65.3185 56 70z"/>
<path style="fill:#5b9dd8; stroke:none;" d="M65 64L66 65L65 64M28 65L29 66L28 65M35 65L36 66L35 65z"/>
<path style="fill:#bf82f6; stroke:none;" d="M43 65L44 66L43 65z"/>
<path style="fill:#5b9dd8; stroke:none;" d="M63 65L64 66L63 65z"/>
<path style="fill:#bf82f6; stroke:none;" d="M96 65L96 69L97 69L96 65z"/>
<path style="fill:#115fcf; stroke:none;" d="M97 65L95 69L95 70C98.5645 74.705 95.4252 80.4098 103 81L103 80L100 70L104 70L104 69L100 69L100 65L97 65z"/>
<path style="fill:#5b9dd8; stroke:none;" d="M100 65L100 69L101 69L100 65M27 66L28 67L27 66M34 66L35 67L34 66z"/>
<path style="fill:#bf82f6; stroke:none;" d="M44 66L44 79L45 79L44 66z"/>
<path style="fill:#5b9dd8; stroke:none;" d="M50 66L51 67L50 66M58 66L59 67L58 66z"/>
<path style="fill:#2079c9; stroke:none;" d="M62 66L62 79L63 79L62 66z"/>
<path style="fill:#5b9dd8; stroke:none;" d="M26 67L27 68L26 67M33 67L34 68L33 67z"/>
<path style="fill:#bf82f6; stroke:none;" d="M46 67L47 68L46 67z"/>
<path style="fill:#2079c9; stroke:none;" d="M50 67L51 68L50 67z"/>
<path style="fill:#bf82f6; stroke:none;" d="M56 67L57 68L56 67M58 67L58 79L59 79L58 67z"/>
<path style="fill:#5b9dd8; stroke:none;" d="M25 68L26 69L25 68M32 68L33 69L32 68M57 68L58 69L57 68M24 69L25 70L24 69M31 69L32 70L31 69z"/>
<path style="fill:#bf82f6; stroke:none;" d="M47.3333 69.6667L47.6667 70.3333L47.3333 69.6667z"/>
<path style="fill:#5b9dd8; stroke:none;" d="M51 69L52 70L51 69z"/>
<path style="fill:#bf82f6; stroke:none;" d="M70 69L71 70L70 69z"/>
<path style="fill:#115fcf; stroke:none;" d="M76 81L76 80L71 75L79 75C75.9303 60.6189 57.7066 79.9956 76 81z"/>
<path style="fill:#5b9dd8; stroke:none;" d="M76 69L77 70L76 69z"/>
<path style="fill:#bf82f6; stroke:none;" d="M84 69L85 70L84 69z"/>
<path style="fill:#115fcf; stroke:none;" d="M90 81L90 80L85 75L93 75C89.9303 60.6189 71.7066 79.9956 90 81z"/>
<path style="fill:#5b9dd8; stroke:none;" d="M90 69L91 70L90 69z"/>
<path style="fill:#bf82f6; stroke:none;" d="M94 69L95 70L94 69z"/>
<path style="fill:#5b9dd8; stroke:none;" d="M23 70L24 71L23 70M30 70L31 71L30 70z"/>
<path style="fill:#2079c9; stroke:none;" d="M51 70L52 71L51 70z"/>
<path style="fill:#bf82f6; stroke:none;" d="M55 70L56 71L55 70z"/>
<path style="fill:#2079c9; stroke:none;" d="M56 70L57 71L56 70z"/>
<path style="fill:#fcfdfe; stroke:none;" d="M72 70L71 74L75 74L74 70L72 70z"/>
<path style="fill:#bf82f6; stroke:none;" d="M74 70L75 71L74 70z"/>
<path style="fill:#fcfdfe; stroke:none;" d="M86 70L85 74L89 74L88 70L86 70z"/>
<path style="fill:#bf82f6; stroke:none;" d="M88 70L89 71L88 70M96 70L96 79L97 79L96 70z"/>
<path style="fill:#5b9dd8; stroke:none;" d="M100 70L100 79L101 79L100 70z"/>
<path style="fill:#2079c9; stroke:none;" d="M0 71L0 73L12 73L12 71L0 71z"/>
<path style="fill:#5b9dd8; stroke:none;" d="M12.3333 71.6667L12.6667 72.3333L12.3333 71.6667M22 71L23 72L22 71M29 71L30 72L29 71z"/>
<path style="fill:#115fcf; stroke:none;" d="M55.3333 71.6667L55.6667 72.3333L55.3333 71.6667z"/>
<path style="fill:#5b9dd8; stroke:none;" d="M56 71L57 72L56 71M71.3333 71.6667L71.6667 72.3333L71.3333 71.6667M78 71L79 72L78 71M85.3333 71.6667L85.6667 72.3333L85.3333 71.6667M92 71L93 72L92 71M131.333 71.6667L131.667 72.3333L131.333 71.6667z"/>
<path style="fill:#2079c9; stroke:none;" d="M132 71L132 73L144 73L144 71L132 71z"/>
<path style="fill:#5b9dd8; stroke:none;" d="M21 72L22 73L21 72M28 72L29 73L28 72z"/>
<path style="fill:#bf82f6; stroke:none;" d="M48.3333 72.6667L48.6667 73.3333L48.3333 72.6667z"/>
<path style="fill:#5b9dd8; stroke:none;" d="M52 72L53 73L52 72z"/>
<path style="fill:#bf82f6; stroke:none;" d="M54.3333 72.6667L54.6667 73.3333L54.3333 72.6667M67 72L68 73L67 72M81 72L82 73L81 72z"/>
<path style="fill:#5b9dd8; stroke:none;" d="M22 73L23 74L22 73M29 73L30 74L29 73M55.3333 73.6667L55.6667 74.3333L55.3333 73.6667M79.3333 73.6667L79.6667 74.3333L79.3333 73.6667M93.3333 73.6667L93.6667 74.3333L93.3333 73.6667M115 73L116 74L115 73M23 74L24 75L23 74M30 74L31 75L30 74M53 74L54 75L53 74M114 74L115 75L114 74M24 75L25 76L24 75M31 75L32 76L31 75z"/>
<path style="fill:#bf82f6; stroke:none;" d="M49 75L50 76L49 75z"/>
<path style="fill:#5b9dd8; stroke:none;" d="M113 75L114 76L113 75M25 76L26 77L25 76M32 76L33 77L32 76M54 76L55 77L54 76M71.3333 76.6667L71.6667 77.3333L71.3333 76.6667M85.3333 76.6667L85.6667 77.3333L85.3333 76.6667M112 76L113 77L112 76M26 77L27 78L26 77M33 77L34 78L33 77z"/>
<path style="fill:#bf82f6; stroke:none;" d="M67 77L68 78L67 77M78 77L79 78L78 77z"/>
<path style="fill:#5b9dd8; stroke:none;" d="M79 77L80 78L79 77z"/>
<path style="fill:#bf82f6; stroke:none;" d="M81 77L82 78L81 77M92 77L93 78L92 77z"/>
<path style="fill:#5b9dd8; stroke:none;" d="M93 77L94 78L93 77M111 77L112 78L111 77M27 78L28 79L27 78M34 78L35 79L34 78z"/>
<path style="fill:#bf82f6; stroke:none;" d="M50 78L51 79L50 78z"/>
<path style="fill:#2079c9; stroke:none;" d="M53 78L54 79L53 78z"/>
<path style="fill:#115fcf; stroke:none;" d="M78 78L79 79L78 78M92 78L93 79L92 78z"/>
<path style="fill:#5b9dd8; stroke:none;" d="M110 78L111 79L110 78M28 79L29 80L28 79M35 79L36 80L35 79z"/>
<path style="fill:#bf82f6; stroke:none;" d="M43 79L44 80L43 79z"/>
<path style="fill:#5b9dd8; stroke:none;" d="M53 79L54 80L53 79M63 79L64 80L63 79z"/>
<path style="fill:#bf82f6; stroke:none;" d="M76 79L77 80L76 79z"/>
<path style="fill:#115fcf; stroke:none;" d="M77 79L78 80L77 79z"/>
<path style="fill:#bf82f6; stroke:none;" d="M90 79L91 80L90 79z"/>
<path style="fill:#115fcf; stroke:none;" d="M91 79L92 80L91 79z"/>
<path style="fill:#5b9dd8; stroke:none;" d="M109 79L110 80L109 79M29 80L30 81L29 80M36 80L37 81L36 80z"/>
<path style="fill:#bf82f6; stroke:none;" d="M41 80L42 81L41 80z"/>
<path style="fill:#2079c9; stroke:none;" d="M48 80L49 81L48 80z"/>
<path style="fill:#5b9dd8; stroke:none;" d="M65 80L66 81L65 80z"/>
<path style="fill:#bf82f6; stroke:none;" d="M70 80L71 81L70 80z"/>
<path style="fill:#5b9dd8; stroke:none;" d="M76 80L77 81L76 80z"/>
<path style="fill:#bf82f6; stroke:none;" d="M84 80L85 81L84 80z"/>
<path style="fill:#5b9dd8; stroke:none;" d="M90 80L91 81L90 80M103 80L104 81L103 80M108 80L109 81L108 80M30 81L31 82L30 81M37 81L38 82L37 81M107 81L108 82L107 81M31 82L32 83L31 82M38 82L39 83L38 82M106 82L107 83L106 82M32 83L33 84L32 83M39 83L40 84L39 83M105 83L106 84L105 83M33 84L34 85L33 84M40 84L41 85L40 84M104 84L105 85L104 84M34 85L35 86L34 85M41 85L42 86L41 85M103 85L104 86L103 85M35 86L36 87L35 86M42 86L43 87L42 86M102 86L103 87L102 86M36 87L37 88L36 87M43 87L44 88L43 87M101 87L102 88L101 87M37 88L38 89L37 88M44 88L45 89L44 88M100 88L101 89L100 88M38 89L39 90L38 89M45 89L46 90L45 89M99 89L100 90L99 89M39 90L40 91L39 90M46 90L47 91L46 90M98 90L99 91L98 90M40 91L41 92L40 91M47 91L48 92L47 91M97 91L98 92L97 91M41 92L42 93L41 92M48 92L49 93L48 92M96 92L97 93L96 92M42 93L43 94L42 93M49 93L50 94L49 93M95 93L96 94L95 93M43 94L44 95L43 94M50 94L51 95L50 94M94 94L95 95L94 94M44 95L45 96L44 95M51 95L52 96L51 95M93 95L94 96L93 95M45 96L46 97L45 96M52 96L53 97L52 96M92 96L93 97L92 96M44 97L45 98L44 97M53 97L54 98L53 97M91 97L92 98L91 97M43 98L44 99L43 98M54 98L55 99L54 98M90 98L91 99L90 98M42 99L43 100L42 99M55 99L56 100L55 99M89 99L90 100L89 99M41 100L42 101L41 100M48.6667 100.333L49.3333 100.667L48.6667 100.333M56 100L57 101L56 100M88 100L89 101L88 100M95.6667 100.333L96.3333 100.667L95.6667 100.333M40 101L41 102L40 101M47 101L48 102L47 101M50 101L51 102L50 101M57 101L58 102L57 101M87 101L88 102L87 101M94 101L95 102L94 101M97 101L98 102L97 101M39 102L40 103L39 102M46 102L47 103L46 102M51 102L52 103L51 102M58 102L59 103L58 102M86 102L87 103L86 102M93 102L94 103L93 102M98 102L99 103L98 102M38 103L39 104L38 103M45 103L46 104L45 103M52 103L53 104L52 103M59 103L60 104L59 103M85 103L86 104L85 103M92 103L93 104L92 103M99 103L100 104L99 103M37 104L38 105L37 104M44 104L45 105L44 104M53 104L54 105L53 104M60 104L61 105L60 104M84 104L85 105L84 104M91 104L92 105L91 104M100 104L101 105L100 104M36 105L37 106L36 105M43 105L44 106L43 105M54 105L55 106L54 105M83 105L84 106L83 105M90 105L91 106L90 105M101 105L102 106L101 105M35 106L36 107L35 106M42 106L43 107L42 106M55 106L56 107L55 106M82 106L83 107L82 106M89 106L90 107L89 106M102 106L103 107L102 106M34 107L35 108L34 107M41 107L42 108L41 107M56 107L57 108L56 107M81 107L82 108L81 107M88 107L89 108L88 107M103 107L104 108L103 107M33 108L34 109L33 108M40 108L41 109L40 108M57 108L58 109L57 108M80 108L81 109L80 108M87 108L88 109L87 108M104 108L105 109L104 108M39 109L40 110L39 109M58 109L59 110L58 109M79 109L80 110L79 109M86 109L87 110L86 109M38 110L39 111L38 110M59 110L60 111L59 110M78 110L79 111L78 110M85 110L86 111L85 110M37 111L38 112L37 111M60 111L61 112L60 111M77 111L78 112L77 111M84 111L85 112L84 111M36 112L37 113L36 112M61 112L62 113L61 112M76 112L77 113L76 112M83 112L84 113L83 112M35 113L36 114L35 113M62 113L63 114L62 113M75 113L76 114L75 113M82 113L83 114L82 113M34 114L35 115L34 114M63 114L64 115L63 114M74 114L75 115L74 114M81 114L82 115L81 114M33 115L34 116L33 115M64 115L65 116L64 115M73 115L74 116L73 115M80 115L81 116L80 115M32 116L33 117L32 116M65 116L66 117L65 116M72 116L73 117L72 116M79 116L80 117L79 116M31 117L32 118L31 117M66 117L67 118L66 117M78 117L79 118L78 117M30 118L31 119L30 118M67 118L68 119L67 118M77 118L78 119L77 118M29 119L30 120L29 119M68 119L69 120L68 119M76 119L77 120L76 119M28 120L29 121L28 120M69 120L70 121L69 120M75 120L76 121L75 120M27 121L28 122L27 121M70 121L71 122L70 121M74 121L75 122L74 121M26 122L27 123L26 122M71 122L72 123L71 122M73 122L74 123L73 122M117 122L118 123L117 122M18 123L25 125L25 124L18 123M25 123L26 124L25 123M72 123L73 124L72 123M118 123L119 124L118 123z"/>
</svg>
